<svg width="1440" height="420" viewBox="0 0 1440 420" fill="none" xmlns="http://www.w3.org/2000/svg">
<rect y="0.102417" width="1440" height="420" fill="#2D2D30"/>
<path d="M-10.46 431V104.82H33.72V431H-10.46ZM19.62 287.65V247.23H189.76V287.65H19.62ZM19.62 145.24V104.82H197.75V145.24H19.62ZM398.763 435.7C375.576 435.7 353.956 431.47 333.903 423.01C313.85 414.237 296.303 402.173 281.263 386.82C266.223 371.153 254.473 353.137 246.013 332.77C237.866 312.403 233.793 290.627 233.793 267.44C233.793 243.94 237.866 222.163 246.013 202.11C254.473 181.743 266.066 163.883 280.793 148.53C295.833 133.177 313.223 121.27 332.963 112.81C353.016 104.35 374.636 100.12 397.823 100.12C421.01 100.12 442.473 104.35 462.213 112.81C482.266 121.27 499.813 133.177 514.853 148.53C529.893 163.883 541.643 181.743 550.103 202.11C558.563 222.477 562.793 244.41 562.793 267.91C562.793 291.097 558.563 312.873 550.103 333.24C541.643 353.607 529.893 371.467 514.853 386.82C500.126 402.173 482.736 414.237 462.683 423.01C442.943 431.47 421.636 435.7 398.763 435.7ZM397.823 393.4C421.323 393.4 441.846 388.073 459.393 377.42C477.253 366.453 491.353 351.57 501.693 332.77C512.033 313.657 517.203 291.88 517.203 267.44C517.203 249.267 514.226 232.66 508.273 217.62C502.32 202.267 494.016 188.95 483.363 177.67C472.71 166.39 460.176 157.773 445.763 151.82C431.35 145.553 415.37 142.42 397.823 142.42C374.636 142.42 354.113 147.747 336.253 158.4C318.706 169.053 304.763 183.78 294.423 202.58C284.396 221.38 279.383 243 279.383 267.44C279.383 285.613 282.203 302.533 287.843 318.2C293.796 333.553 301.943 346.87 312.283 358.15C322.936 369.117 335.47 377.733 349.883 384C364.61 390.267 380.59 393.4 397.823 393.4ZM774.201 435.7C750.701 435.7 728.925 431.47 708.871 423.01C688.818 414.237 671.271 402.173 656.231 386.82C641.505 371.467 630.068 353.607 621.921 333.24C613.775 312.873 609.701 291.097 609.701 267.91C609.701 244.41 613.775 222.477 621.921 202.11C630.068 181.743 641.505 164.04 656.231 149C671.271 133.647 688.661 121.74 708.401 113.28C728.455 104.507 750.231 100.12 773.731 100.12C799.425 100.12 821.985 104.507 841.411 113.28C860.838 122.053 878.071 133.96 893.111 149L862.561 179.55C852.221 167.957 839.531 158.87 824.491 152.29C809.765 145.71 792.845 142.42 773.731 142.42C756.498 142.42 740.675 145.553 726.261 151.82C711.848 157.773 699.315 166.39 688.661 177.67C678.008 188.95 669.705 202.267 663.751 217.62C658.111 232.973 655.291 249.737 655.291 267.91C655.291 286.083 658.111 302.847 663.751 318.2C669.705 333.553 678.008 346.87 688.661 358.15C699.315 369.43 711.848 378.203 726.261 384.47C740.675 390.423 756.498 393.4 773.731 393.4C794.098 393.4 811.801 390.11 826.841 383.53C841.881 376.637 854.571 367.393 864.911 355.8L895.461 385.88C880.421 401.547 862.718 413.767 842.351 422.54C822.298 431.313 799.581 435.7 774.201 435.7ZM1071.94 435.7C1047.81 435.7 1026.19 430.373 1007.08 419.72C988.275 408.753 973.392 393.87 962.425 375.07C951.459 355.957 945.975 334.337 945.975 310.21V104.82H990.155V309.27C990.155 326.503 993.759 341.387 1000.97 353.92C1008.17 366.453 1017.89 376.167 1030.11 383.06C1042.64 389.953 1056.58 393.4 1071.94 393.4C1087.92 393.4 1101.86 389.953 1113.77 383.06C1125.99 376.167 1135.54 366.453 1142.44 353.92C1149.64 341.387 1153.25 326.66 1153.25 309.74V104.82H1197.9V310.68C1197.9 334.807 1192.41 356.27 1181.45 375.07C1170.48 393.87 1155.6 408.753 1136.8 419.72C1118 430.373 1096.38 435.7 1071.94 435.7ZM1357.6 435.7C1331.91 435.7 1309.98 431 1291.8 421.6C1273.63 412.2 1257.49 398.57 1243.39 380.71L1273.47 350.63C1283.81 365.043 1295.72 376.01 1309.19 383.53C1322.67 390.737 1339.27 394.34 1359.01 394.34C1378.44 394.34 1393.95 390.11 1405.54 381.65C1417.45 373.19 1423.4 361.597 1423.4 346.87C1423.4 334.65 1420.58 324.78 1414.94 317.26C1409.3 309.74 1401.63 303.63 1391.91 298.93C1382.51 293.917 1372.17 289.53 1360.89 285.77C1349.61 281.697 1338.33 277.467 1327.05 273.08C1315.77 268.38 1305.43 262.74 1296.03 256.16C1286.63 249.267 1278.96 240.337 1273 229.37C1267.36 218.403 1264.54 204.617 1264.54 188.01C1264.54 169.523 1268.93 153.857 1277.7 141.01C1286.79 127.85 1299.01 117.823 1314.36 110.93C1330.03 103.723 1347.58 100.12 1367 100.12C1388.31 100.12 1407.42 104.35 1424.34 112.81C1441.26 120.957 1455.05 131.767 1465.7 145.24L1435.62 175.32C1425.91 164.04 1415.41 155.58 1404.13 149.94C1393.17 144.3 1380.48 141.48 1366.06 141.48C1348.52 141.48 1334.57 145.397 1324.23 153.23C1313.89 160.75 1308.72 171.403 1308.72 185.19C1308.72 196.157 1311.54 205.087 1317.18 211.98C1323.14 218.56 1330.81 224.2 1340.21 228.9C1349.61 233.6 1359.95 237.987 1371.23 242.06C1382.83 245.82 1394.26 250.05 1405.54 254.75C1416.82 259.45 1427.16 265.403 1436.56 272.61C1445.96 279.817 1453.48 289.217 1459.12 300.81C1465.08 312.09 1468.05 326.347 1468.05 343.58C1468.05 372.407 1458.03 394.967 1437.97 411.26C1418.23 427.553 1391.44 435.7 1357.6 435.7Z" fill="#1E1E1F" fill-opacity="0.25"/>
</svg>
