<svg width="1440" height="420" viewBox="0 0 1440 420" fill="none" xmlns="http://www.w3.org/2000/svg">
<rect y="0.102417" width="1440" height="420" fill="#EEEEEE"/>
<path d="M-10.46 433V106.82H33.72V433H-10.46ZM19.62 289.65V249.23H189.76V289.65H19.62ZM19.62 147.24V106.82H197.75V147.24H19.62ZM398.763 437.7C375.576 437.7 353.956 433.47 333.903 425.01C313.85 416.237 296.303 404.173 281.263 388.82C266.223 373.153 254.473 355.137 246.013 334.77C237.866 314.403 233.793 292.627 233.793 269.44C233.793 245.94 237.866 224.163 246.013 204.11C254.473 183.743 266.066 165.883 280.793 150.53C295.833 135.177 313.223 123.27 332.963 114.81C353.016 106.35 374.636 102.12 397.823 102.12C421.01 102.12 442.473 106.35 462.213 114.81C482.266 123.27 499.813 135.177 514.853 150.53C529.893 165.883 541.643 183.743 550.103 204.11C558.563 224.477 562.793 246.41 562.793 269.91C562.793 293.097 558.563 314.873 550.103 335.24C541.643 355.607 529.893 373.467 514.853 388.82C500.126 404.173 482.736 416.237 462.683 425.01C442.943 433.47 421.636 437.7 398.763 437.7ZM397.823 395.4C421.323 395.4 441.846 390.073 459.393 379.42C477.253 368.453 491.353 353.57 501.693 334.77C512.033 315.657 517.203 293.88 517.203 269.44C517.203 251.267 514.226 234.66 508.273 219.62C502.32 204.267 494.016 190.95 483.363 179.67C472.71 168.39 460.176 159.773 445.763 153.82C431.35 147.553 415.37 144.42 397.823 144.42C374.636 144.42 354.113 149.747 336.253 160.4C318.706 171.053 304.763 185.78 294.423 204.58C284.396 223.38 279.383 245 279.383 269.44C279.383 287.613 282.203 304.533 287.843 320.2C293.796 335.553 301.943 348.87 312.283 360.15C322.936 371.117 335.47 379.733 349.883 386C364.61 392.267 380.59 395.4 397.823 395.4ZM774.201 437.7C750.701 437.7 728.925 433.47 708.871 425.01C688.818 416.237 671.271 404.173 656.231 388.82C641.505 373.467 630.068 355.607 621.921 335.24C613.775 314.873 609.701 293.097 609.701 269.91C609.701 246.41 613.775 224.477 621.921 204.11C630.068 183.743 641.505 166.04 656.231 151C671.271 135.647 688.661 123.74 708.401 115.28C728.455 106.507 750.231 102.12 773.731 102.12C799.425 102.12 821.985 106.507 841.411 115.28C860.838 124.053 878.071 135.96 893.111 151L862.561 181.55C852.221 169.957 839.531 160.87 824.491 154.29C809.765 147.71 792.845 144.42 773.731 144.42C756.498 144.42 740.675 147.553 726.261 153.82C711.848 159.773 699.315 168.39 688.661 179.67C678.008 190.95 669.705 204.267 663.751 219.62C658.111 234.973 655.291 251.737 655.291 269.91C655.291 288.083 658.111 304.847 663.751 320.2C669.705 335.553 678.008 348.87 688.661 360.15C699.315 371.43 711.848 380.203 726.261 386.47C740.675 392.423 756.498 395.4 773.731 395.4C794.098 395.4 811.801 392.11 826.841 385.53C841.881 378.637 854.571 369.393 864.911 357.8L895.461 387.88C880.421 403.547 862.718 415.767 842.351 424.54C822.298 433.313 799.581 437.7 774.201 437.7ZM1071.94 437.7C1047.81 437.7 1026.19 432.373 1007.08 421.72C988.275 410.753 973.392 395.87 962.425 377.07C951.459 357.957 945.975 336.337 945.975 312.21V106.82H990.155V311.27C990.155 328.503 993.759 343.387 1000.97 355.92C1008.17 368.453 1017.89 378.167 1030.11 385.06C1042.64 391.953 1056.58 395.4 1071.94 395.4C1087.92 395.4 1101.86 391.953 1113.77 385.06C1125.99 378.167 1135.54 368.453 1142.44 355.92C1149.64 343.387 1153.25 328.66 1153.25 311.74V106.82H1197.9V312.68C1197.9 336.807 1192.41 358.27 1181.45 377.07C1170.48 395.87 1155.6 410.753 1136.8 421.72C1118 432.373 1096.38 437.7 1071.94 437.7ZM1357.6 437.7C1331.91 437.7 1309.98 433 1291.8 423.6C1273.63 414.2 1257.49 400.57 1243.39 382.71L1273.47 352.63C1283.81 367.043 1295.72 378.01 1309.19 385.53C1322.67 392.737 1339.27 396.34 1359.01 396.34C1378.44 396.34 1393.95 392.11 1405.54 383.65C1417.45 375.19 1423.4 363.597 1423.4 348.87C1423.4 336.65 1420.58 326.78 1414.94 319.26C1409.3 311.74 1401.63 305.63 1391.91 300.93C1382.51 295.917 1372.17 291.53 1360.89 287.77C1349.61 283.697 1338.33 279.467 1327.05 275.08C1315.77 270.38 1305.43 264.74 1296.03 258.16C1286.63 251.267 1278.96 242.337 1273 231.37C1267.36 220.403 1264.54 206.617 1264.54 190.01C1264.54 171.523 1268.93 155.857 1277.7 143.01C1286.79 129.85 1299.01 119.823 1314.36 112.93C1330.03 105.723 1347.58 102.12 1367 102.12C1388.31 102.12 1407.42 106.35 1424.34 114.81C1441.26 122.957 1455.05 133.767 1465.7 147.24L1435.62 177.32C1425.91 166.04 1415.41 157.58 1404.13 151.94C1393.17 146.3 1380.48 143.48 1366.06 143.48C1348.52 143.48 1334.57 147.397 1324.23 155.23C1313.89 162.75 1308.72 173.403 1308.72 187.19C1308.72 198.157 1311.54 207.087 1317.18 213.98C1323.14 220.56 1330.81 226.2 1340.21 230.9C1349.61 235.6 1359.95 239.987 1371.23 244.06C1382.83 247.82 1394.26 252.05 1405.54 256.75C1416.82 261.45 1427.16 267.403 1436.56 274.61C1445.96 281.817 1453.48 291.217 1459.12 302.81C1465.08 314.09 1468.05 328.347 1468.05 345.58C1468.05 374.407 1458.03 396.967 1437.97 413.26C1418.23 429.553 1391.44 437.7 1357.6 437.7Z" fill="#1E1E1F" fill-opacity="0.05"/>
</svg>
