<svg width="270" height="487" viewBox="0 0 270 487" fill="none" xmlns="http://www.w3.org/2000/svg">
<mask id="mask0_282_660" style="mask-type:alpha" maskUnits="userSpaceOnUse" x="0" y="0" width="270" height="487">
<g clip-path="url(#clip0_282_660)">
<rect x="264.535" y="235.888" width="15" height="15" rx="7.5" fill="#5271FF"/>
<rect x="250.211" y="260.697" width="15" height="15" rx="7.5" fill="#5271FF"/>
<rect x="221.562" y="260.697" width="15" height="15" rx="7.5" fill="#5271FF"/>
<rect x="207.238" y="235.888" width="15" height="15" rx="7.5" fill="#5271FF"/>
<rect x="221.562" y="211.078" width="15" height="15" rx="7.5" fill="#5271FF"/>
<rect x="250.211" y="211.078" width="15" height="15" rx="7.5" fill="#5271FF"/>
<rect x="264.535" y="285.507" width="15" height="15" rx="7.5" fill="#5271FF"/>
<rect x="235.887" y="293.184" width="15" height="15" rx="7.5" fill="#5271FF"/>
<rect x="207.238" y="285.507" width="15" height="15" rx="7.5" fill="#5271FF"/>
<rect x="186.268" y="264.535" width="15" height="15" rx="7.5" fill="#5271FF"/>
<rect x="178.592" y="235.888" width="15" height="15" rx="7.5" fill="#5271FF"/>
<rect x="186.268" y="207.239" width="15" height="15" rx="7.5" fill="#5271FF"/>
<rect x="207.238" y="186.268" width="15" height="15" rx="7.5" fill="#5271FF"/>
<rect x="235.887" y="178.592" width="15" height="15" rx="7.5" fill="#5271FF"/>
<rect x="264.535" y="186.268" width="15" height="15" rx="7.5" fill="#5271FF"/>
<rect x="250.811" y="320.525" width="15" height="15" rx="7.5" fill="#5271FF"/>
<rect x="220.963" y="320.525" width="15" height="15" rx="7.5" fill="#5271FF"/>
<rect x="192.914" y="310.316" width="15" height="15" rx="7.5" fill="#5271FF"/>
<rect x="170.051" y="291.131" width="15" height="15" rx="7.5" fill="#5271FF"/>
<rect x="155.127" y="265.282" width="15" height="15" rx="7.5" fill="#5271FF"/>
<rect x="149.943" y="235.888" width="15" height="15" rx="7.5" fill="#5271FF"/>
<rect x="155.127" y="206.493" width="15" height="15" rx="7.5" fill="#5271FF"/>
<rect x="170.051" y="180.644" width="15" height="15" rx="7.5" fill="#5271FF"/>
<rect x="192.914" y="161.458" width="15" height="15" rx="7.5" fill="#5271FF"/>
<rect x="220.963" y="151.25" width="15" height="15" rx="7.5" fill="#5271FF"/>
<rect x="250.811" y="151.25" width="15" height="15" rx="7.5" fill="#5271FF"/>
<rect x="265.545" y="346.574" width="15" height="15" rx="7.5" fill="#5271FF"/>
<rect x="235.887" y="350.479" width="15" height="15" rx="7.5" fill="#5271FF"/>
<rect x="206.229" y="346.574" width="15" height="15" rx="7.5" fill="#5271FF"/>
<rect x="178.592" y="335.127" width="15" height="15" rx="7.5" fill="#5271FF"/>
<rect x="154.857" y="316.916" width="15" height="15" rx="7.5" fill="#5271FF"/>
<rect x="136.648" y="293.184" width="15" height="15" rx="7.5" fill="#5271FF"/>
<rect x="125.199" y="265.546" width="15" height="15" rx="7.5" fill="#5271FF"/>
<rect x="121.295" y="235.888" width="15" height="15" rx="7.5" fill="#5271FF"/>
<rect x="125.199" y="206.229" width="15" height="15" rx="7.5" fill="#5271FF"/>
<rect x="136.648" y="178.592" width="15" height="15" rx="7.5" fill="#5271FF"/>
<rect x="154.857" y="154.859" width="15" height="15" rx="7.5" fill="#5271FF"/>
<rect x="178.592" y="136.648" width="15" height="15" rx="7.5" fill="#5271FF"/>
<rect x="206.229" y="125.2" width="15" height="15" rx="7.5" fill="#5271FF"/>
<rect x="235.887" y="121.296" width="15" height="15" rx="7.5" fill="#5271FF"/>
<rect x="265.545" y="125.2" width="15" height="15" rx="7.5" fill="#5271FF"/>
<rect x="250.859" y="378.342" width="15" height="15" rx="7.5" fill="#5271FF"/>
<rect x="220.914" y="378.342" width="15" height="15" rx="7.5" fill="#5271FF"/>
<rect x="191.623" y="372.116" width="15" height="15" rx="7.5" fill="#5271FF"/>
<rect x="164.268" y="359.937" width="15" height="15" rx="7.5" fill="#5271FF"/>
<rect x="140.041" y="342.335" width="15" height="15" rx="7.5" fill="#5271FF"/>
<rect x="120.004" y="320.081" width="15" height="15" rx="7.5" fill="#5271FF"/>
<rect x="105.031" y="294.148" width="15" height="15" rx="7.5" fill="#5271FF"/>
<rect x="95.7773" y="265.669" width="15" height="15" rx="7.5" fill="#5271FF"/>
<rect x="92.6465" y="235.888" width="15" height="15" rx="7.5" fill="#5271FF"/>
<rect x="95.7773" y="206.106" width="15" height="15" rx="7.5" fill="#5271FF"/>
<rect x="105.031" y="177.627" width="15" height="15" rx="7.5" fill="#5271FF"/>
<rect x="120.004" y="151.693" width="15" height="15" rx="7.5" fill="#5271FF"/>
<rect x="140.041" y="129.44" width="15" height="15" rx="7.5" fill="#5271FF"/>
<rect x="164.268" y="111.838" width="15" height="15" rx="7.5" fill="#5271FF"/>
<rect x="191.623" y="99.6587" width="15" height="15" rx="7.5" fill="#5271FF"/>
<rect x="220.914" y="93.4326" width="15" height="15" rx="7.5" fill="#5271FF"/>
<rect x="250.859" y="93.4326" width="15" height="15" rx="7.5" fill="#5271FF"/>
<rect x="265.734" y="405.163" width="15" height="15" rx="7.5" fill="#5271FF"/>
<rect x="235.887" y="407.774" width="15" height="15" rx="7.5" fill="#5271FF"/>
<rect x="206.039" y="405.163" width="15" height="15" rx="7.5" fill="#5271FF"/>
<rect x="177.098" y="397.409" width="15" height="15" rx="7.5" fill="#5271FF"/>
<rect x="149.943" y="384.746" width="15" height="15" rx="7.5" fill="#5271FF"/>
<rect x="125.4" y="367.561" width="15" height="15" rx="7.5" fill="#5271FF"/>
<rect x="104.213" y="346.374" width="15" height="15" rx="7.5" fill="#5271FF"/>
<rect x="87.0273" y="321.831" width="15" height="15" rx="7.5" fill="#5271FF"/>
<rect x="74.3652" y="294.676" width="15" height="15" rx="7.5" fill="#5271FF"/>
<rect x="66.6113" y="265.735" width="15" height="15" rx="7.5" fill="#5271FF"/>
<rect x="64" y="235.888" width="15" height="15" rx="7.5" fill="#5271FF"/>
<rect x="66.6113" y="206.04" width="15" height="15" rx="7.5" fill="#5271FF"/>
<rect x="74.3652" y="177.099" width="15" height="15" rx="7.5" fill="#5271FF"/>
<rect x="87.0273" y="149.944" width="15" height="15" rx="7.5" fill="#5271FF"/>
<rect x="104.213" y="125.4" width="15" height="15" rx="7.5" fill="#5271FF"/>
<rect x="125.4" y="104.214" width="15" height="15" rx="7.5" fill="#5271FF"/>
<rect x="149.943" y="87.0286" width="15" height="15" rx="7.5" fill="#5271FF"/>
<rect x="177.098" y="74.3662" width="15" height="15" rx="7.5" fill="#5271FF"/>
<rect x="206.039" y="66.6116" width="15" height="15" rx="7.5" fill="#5271FF"/>
<rect x="235.887" y="64" width="15" height="15" rx="7.5" fill="#5271FF"/>
<rect x="265.734" y="66.6116" width="15" height="15" rx="7.5" fill="#5271FF"/>
<rect x="235.887" y="235.888" width="15" height="15" rx="7.5" fill="#5271FF"/>
</g>
</mask>
<g mask="url(#mask0_282_660)">
<rect width="270" height="487" fill="url(#paint0_linear_282_660)"/>
</g>
<defs>
<linearGradient id="paint0_linear_282_660" x1="270" y1="233" x2="53" y2="232" gradientUnits="userSpaceOnUse">
<stop stop-color="#5271FF"/>
<stop offset="1" stop-color="#5271FF" stop-opacity="0"/>
</linearGradient>
<clipPath id="clip0_282_660">
<rect width="270" height="487" fill="white"/>
</clipPath>
</defs>
</svg>
