<svg width="30" height="30" viewBox="0 0 30 30" fill="none" xmlns="http://www.w3.org/2000/svg">
<path fill-rule="evenodd" clip-rule="evenodd" d="M14.9932 19.375C17.4094 19.375 19.3682 17.4162 19.3682 15C19.3682 12.5838 17.4094 10.625 14.9932 10.625C12.5769 10.625 10.6182 12.5838 10.6182 15C10.6182 17.4162 12.5769 19.375 14.9932 19.375ZM14.9932 16.868C13.9616 16.868 13.1252 16.0316 13.1252 15C13.1252 13.9684 13.9616 13.132 14.9932 13.132C16.0248 13.132 16.8612 13.9684 16.8612 15C16.8612 16.0316 16.0248 16.868 14.9932 16.868Z" fill="#1E1E1F"/>
<path fill-rule="evenodd" clip-rule="evenodd" d="M15.0003 6.25C8.98631 6.25 4.89619 9.51131 2.73694 11.8497C1.07206 13.6528 1.07206 16.3472 2.73694 18.1502C4.89619 20.4887 8.98631 23.75 15.0003 23.75C21.0143 23.75 25.1044 20.4887 27.2637 18.1502C28.9286 16.3472 28.9286 13.6528 27.2637 11.8497C25.1044 9.51131 21.0143 6.25 15.0003 6.25ZM4.57367 13.5458C6.48572 11.475 9.95894 8.75 15.0003 8.75C20.0417 8.75 23.5149 11.475 25.4269 13.5458C26.2074 14.391 26.2074 15.609 25.4269 16.4542C23.5149 18.525 20.0417 21.25 15.0003 21.25C9.95894 21.25 6.48572 18.525 4.57367 16.4542C3.79314 15.609 3.79314 14.391 4.57367 13.5458Z" fill="#1E1E1F"/>
</svg>
