<svg width="24" height="24" viewBox="0 0 24 24" fill="none" xmlns="http://www.w3.org/2000/svg">
<mask id="mask0_219_1527" style="mask-type:alpha" maskUnits="userSpaceOnUse" x="0" y="0" width="25" height="24">
<rect x="0.000976562" width="24" height="24" fill="#D9D9D9"/>
</mask>
<g mask="url(#mask0_219_1527)">
<path d="M12.101 22C10.701 22 9.38848 21.7333 8.16348 21.2C6.93848 20.6667 5.87181 19.9458 4.96348 19.0375C4.05514 18.1292 3.33431 17.0625 2.80098 15.8375C2.26764 14.6125 2.00098 13.3 2.00098 11.9C2.00098 9.46667 2.77598 7.32083 4.32598 5.4625C5.87598 3.60417 7.85098 2.45 10.251 2C9.95098 3.65 10.0426 5.2625 10.526 6.8375C11.0093 8.4125 11.8426 9.79167 13.026 10.975C14.2093 12.1583 15.5885 12.9917 17.1635 13.475C18.7385 13.9583 20.351 14.05 22.001 13.75C21.5676 16.15 20.4176 18.125 18.551 19.675C16.6843 21.225 14.5343 22 12.101 22ZM12.101 20C13.5676 20 14.926 19.6333 16.176 18.9C17.426 18.1667 18.4093 17.1583 19.126 15.875C17.6926 15.7417 16.3343 15.3792 15.051 14.7875C13.7676 14.1958 12.6176 13.3917 11.601 12.375C10.5843 11.3583 9.77598 10.2083 9.17598 8.925C8.57598 7.64167 8.21764 6.28333 8.10098 4.85C6.81764 5.56667 5.81348 6.55417 5.08848 7.8125C4.36348 9.07083 4.00098 10.4333 4.00098 11.9C4.00098 14.15 4.78848 16.0625 6.36348 17.6375C7.93848 19.2125 9.85098 20 12.101 20Z" fill="white"/>
</g>
</svg>
