<svg width="39" height="39" viewBox="0 0 39 39" fill="none" xmlns="http://www.w3.org/2000/svg">
<mask id="mask0_51_186" style="mask-type:alpha" maskUnits="userSpaceOnUse" x="0" y="0" width="39" height="39">
<rect width="39" height="39" fill="#D9D9D9"/>
</mask>
<g mask="url(#mask0_51_186)">
<path d="M34.0438 36.3594L29.25 31.5656V35.1812H26V26H35.1813V29.25H31.525L36.3188 34.0438L34.0438 36.3594ZM19.5 35.75C17.2521 35.75 15.1396 35.3234 13.1625 34.4703C11.1854 33.6172 9.46563 32.4594 8.00313 30.9969C6.54063 29.5344 5.38281 27.8146 4.52969 25.8375C3.67656 23.8604 3.25 21.7479 3.25 19.5C3.25 17.2521 3.67656 15.1396 4.52969 13.1625C5.38281 11.1854 6.54063 9.46562 8.00313 8.00312C9.46563 6.54062 11.1854 5.38281 13.1625 4.52969C15.1396 3.67656 17.2521 3.25 19.5 3.25C21.7479 3.25 23.8604 3.67656 25.8375 4.52969C27.8146 5.38281 29.5344 6.54062 30.9969 8.00312C32.4594 9.46562 33.6172 11.1854 34.4703 13.1625C35.3234 15.1396 35.75 17.2521 35.75 19.5C35.75 20.0417 35.7229 20.5833 35.6688 21.125C35.6146 21.6667 35.5333 22.2083 35.425 22.75H32.0938C32.2292 22.2083 32.3307 21.6667 32.3984 21.125C32.4661 20.5833 32.5 20.0417 32.5 19.5C32.5 18.9583 32.4661 18.4167 32.3984 17.875C32.3307 17.3333 32.2292 16.7917 32.0938 16.25H26.5688C26.65 16.7917 26.7109 17.3333 26.7516 17.875C26.7922 18.4167 26.8125 18.9583 26.8125 19.5C26.8125 20.0417 26.7922 20.5833 26.7516 21.125C26.7109 21.6667 26.65 22.2083 26.5688 22.75H23.3188C23.4 22.2083 23.4609 21.6667 23.5016 21.125C23.5422 20.5833 23.5625 20.0417 23.5625 19.5C23.5625 18.9583 23.5422 18.4167 23.5016 17.875C23.4609 17.3333 23.4 16.7917 23.3188 16.25H15.6813C15.6 16.7917 15.5391 17.3333 15.4984 17.875C15.4578 18.4167 15.4375 18.9583 15.4375 19.5C15.4375 20.0417 15.4578 20.5833 15.4984 21.125C15.5391 21.6667 15.6 22.2083 15.6813 22.75H21.125V26H16.4125C16.7375 27.1646 17.1573 28.2818 17.6719 29.3516C18.1865 30.4214 18.7958 31.4438 19.5 32.4188C20.0417 32.4188 20.5833 32.3849 21.125 32.3172C21.6667 32.2495 22.2083 32.1885 22.75 32.1344V35.4656C22.2083 35.5198 21.6667 35.5807 21.125 35.6484C20.5833 35.7161 20.0417 35.75 19.5 35.75ZM6.90625 22.75H12.4313C12.35 22.2083 12.2891 21.6667 12.2484 21.125C12.2078 20.5833 12.1875 20.0417 12.1875 19.5C12.1875 18.9583 12.2078 18.4167 12.2484 17.875C12.2891 17.3333 12.35 16.7917 12.4313 16.25H6.90625C6.77083 16.7917 6.66927 17.3333 6.60156 17.875C6.53385 18.4167 6.5 18.9583 6.5 19.5C6.5 20.0417 6.53385 20.5833 6.60156 21.125C6.66927 21.6667 6.77083 22.2083 6.90625 22.75ZM8.2875 13H13.0813C13.325 11.9979 13.6297 11.0161 13.9953 10.0547C14.3609 9.09323 14.7875 8.15208 15.275 7.23125C13.7854 7.71875 12.4448 8.45677 11.2531 9.44531C10.0615 10.4339 9.07292 11.6187 8.2875 13ZM15.275 31.7688C14.7875 30.8479 14.3609 29.9068 13.9953 28.9453C13.6297 27.9839 13.325 27.0021 13.0813 26H8.2875C9.07292 27.3813 10.0615 28.5661 11.2531 29.5547C12.4448 30.5432 13.7854 31.2813 15.275 31.7688ZM16.4125 13H22.5875C22.2625 11.8354 21.8427 10.7182 21.3281 9.64844C20.8135 8.57865 20.2042 7.55625 19.5 6.58125C18.7958 7.55625 18.1865 8.57865 17.6719 9.64844C17.1573 10.7182 16.7375 11.8354 16.4125 13ZM25.9188 13H30.7125C29.9271 11.6187 28.9385 10.4339 27.7469 9.44531C26.5552 8.45677 25.2146 7.71875 23.725 7.23125C24.2125 8.15208 24.6391 9.09323 25.0047 10.0547C25.3703 11.0161 25.675 11.9979 25.9188 13Z" fill="#1E1E1F"/>
</g>
</svg>
