<svg width="38" height="38" viewBox="0 0 38 38" fill="none" xmlns="http://www.w3.org/2000/svg">
<mask id="mask0_207_134" style="mask-type:alpha" maskUnits="userSpaceOnUse" x="0" y="0" width="38" height="38">
<rect width="38" height="38" fill="#D9D9D9"/>
</mask>
<g mask="url(#mask0_207_134)">
<path d="M6.73047 28.975C5.72769 27.7875 4.92283 26.4813 4.31589 25.0563C3.70894 23.6313 3.3263 22.1403 3.16797 20.5834H6.4138C6.57214 21.7181 6.86241 22.8066 7.28464 23.849C7.70686 24.8913 8.26102 25.8611 8.94714 26.7584L6.73047 28.975ZM3.16797 17.4167C3.37908 15.8597 3.77491 14.3688 4.35547 12.9438C4.93602 11.5188 5.72769 10.2125 6.73047 9.02502L8.94714 11.2417C8.26102 12.1389 7.70686 13.1087 7.28464 14.1511C6.86241 15.1934 6.57214 16.282 6.4138 17.4167H3.16797ZM17.3388 34.7542C15.7819 34.5959 14.2975 34.2198 12.8857 33.6261C11.4739 33.0323 10.161 32.2472 8.94714 31.2709L11.1638 28.975C12.0874 29.6611 13.0638 30.2285 14.093 30.6771C15.1221 31.1257 16.2041 31.4292 17.3388 31.5875V34.7542ZM11.243 9.02502L8.94714 6.72918C10.1874 5.75279 11.5201 4.96772 12.9451 4.37397C14.3701 3.78022 15.861 3.40418 17.418 3.24585V6.41252C16.2832 6.57085 15.1947 6.87432 14.1523 7.32293C13.11 7.77154 12.1402 8.33891 11.243 9.02502ZM19.0013 23.75C17.6819 23.75 16.5603 23.2882 15.6367 22.3646C14.7131 21.441 14.2513 20.3195 14.2513 19C14.2513 17.6806 14.7131 16.559 15.6367 15.6354C16.5603 14.7118 17.6819 14.25 19.0013 14.25C20.3207 14.25 21.4423 14.7118 22.3659 15.6354C23.2895 16.559 23.7513 17.6806 23.7513 19C23.7513 20.3195 23.2895 21.441 22.3659 22.3646C21.4423 23.2882 20.3207 23.75 19.0013 23.75ZM20.5055 34.7542V31.5875C21.6666 31.4292 22.7683 31.1323 23.8107 30.6969C24.853 30.2615 25.836 29.6875 26.7596 28.975L29.0555 31.2709C27.8152 32.2736 26.476 33.0653 25.0378 33.6459C23.5996 34.2264 22.0888 34.5959 20.5055 34.7542ZM26.8388 9.02502C25.9152 8.33891 24.9256 7.77154 23.8701 7.32293C22.8145 6.87432 21.7194 6.57085 20.5846 6.41252V3.24585C22.1416 3.40418 23.6392 3.78022 25.0773 4.37397C26.5155 4.96772 27.8416 5.75279 29.0555 6.72918L26.8388 9.02502ZM31.2721 28.975L29.0555 26.7584C29.7416 25.8611 30.2957 24.8913 30.718 23.849C31.1402 22.8066 31.4305 21.7181 31.5888 20.5834H34.8346C34.6235 22.1403 34.2277 23.6313 33.6471 25.0563C33.0666 26.4813 32.2749 27.7875 31.2721 28.975ZM31.5888 17.4167C31.4305 16.282 31.1402 15.1934 30.718 14.1511C30.2957 13.1087 29.7416 12.1389 29.0555 11.2417L31.2721 9.02502C32.2749 10.2125 33.0798 11.5188 33.6867 12.9438C34.2937 14.3688 34.6763 15.8597 34.8346 17.4167H31.5888Z" fill="#6D6D70"/>
</g>
</svg>
