<svg width="33" height="33" viewBox="0 0 33 33" fill="none" xmlns="http://www.w3.org/2000/svg">
<path d="M30.9388 16.8208C30.9388 15.6337 30.8405 14.7675 30.6277 13.8691H16.7959V19.227H24.9149C24.7513 20.5586 23.8673 22.5637 21.903 23.9111L21.8754 24.0906L26.2489 27.4108L26.5518 27.4404C29.3346 24.9219 30.9388 21.2162 30.9388 16.8208Z" fill="#4285F4"/>
<path d="M16.7955 30.9372C20.7731 30.9372 24.1123 29.6538 26.5514 27.44L21.9025 23.9107C20.6585 24.761 18.9888 25.3545 16.7955 25.3545C12.8997 25.3545 9.59316 22.836 8.41449 19.355L8.24172 19.3693L3.69424 22.8183L3.63477 22.9803C6.05736 27.6966 11.0336 30.9372 16.7955 30.9372Z" fill="#34A853"/>
<path d="M8.41459 19.3553C8.10359 18.457 7.9236 17.4944 7.9236 16.4999C7.9236 15.5052 8.10359 14.5428 8.39823 13.6445L8.38999 13.4531L3.78551 9.94873L3.63486 10.019C2.6364 11.9761 2.06348 14.1738 2.06348 16.4999C2.06348 18.8259 2.6364 21.0236 3.63486 22.9807L8.41459 19.3553Z" fill="#FBBC05"/>
<path d="M16.7956 7.64497C19.5619 7.64497 21.4279 8.816 22.492 9.79461L26.6497 5.81625C24.0962 3.49021 20.7732 2.0625 16.7956 2.0625C11.0336 2.0625 6.05737 5.30289 3.63477 10.0191L8.39815 13.6446C9.5932 10.1635 12.8997 7.64497 16.7956 7.64497Z" fill="#EB4335"/>
</svg>
