<svg width="24" height="24" viewBox="0 0 24 24" fill="none" xmlns="http://www.w3.org/2000/svg">
<mask id="mask0_219_812" style="mask-type:alpha" maskUnits="userSpaceOnUse" x="0" y="0" width="25" height="24">
<rect x="0.000793457" width="24" height="24" fill="#D9D9D9"/>
</mask>
<g mask="url(#mask0_219_812)">
<path d="M11.0008 5V1H13.0008V5H11.0008ZM17.6508 7.75L16.2758 6.375L19.0758 3.5L20.4758 4.925L17.6508 7.75ZM19.0008 13V11H23.0008V13H19.0008ZM11.0008 23V19H13.0008V23H11.0008ZM6.35079 7.7L3.50079 4.925L4.92579 3.525L7.75079 6.35L6.35079 7.7ZM19.0508 20.5L16.2758 17.625L17.6258 16.275L20.4758 19.025L19.0508 20.5ZM1.00079 13V11H5.00079V13H1.00079ZM4.92579 20.5L3.52579 19.075L6.32579 16.275L7.05079 16.95L7.77579 17.65L4.92579 20.5ZM12.0008 18C10.3341 18 8.91746 17.4167 7.75079 16.25C6.58413 15.0833 6.00079 13.6667 6.00079 12C6.00079 10.3333 6.58413 8.91667 7.75079 7.75C8.91746 6.58333 10.3341 6 12.0008 6C13.6675 6 15.0841 6.58333 16.2508 7.75C17.4175 8.91667 18.0008 10.3333 18.0008 12C18.0008 13.6667 17.4175 15.0833 16.2508 16.25C15.0841 17.4167 13.6675 18 12.0008 18ZM12.0008 16C13.1008 16 14.0425 15.6083 14.8258 14.825C15.6091 14.0417 16.0008 13.1 16.0008 12C16.0008 10.9 15.6091 9.95833 14.8258 9.175C14.0425 8.39167 13.1008 8 12.0008 8C10.9008 8 9.95913 8.39167 9.17579 9.175C8.39246 9.95833 8.00079 10.9 8.00079 12C8.00079 13.1 8.39246 14.0417 9.17579 14.825C9.95913 15.6083 10.9008 16 12.0008 16Z" fill="white"/>
</g>
</svg>
