<svg width="38" height="38" viewBox="0 0 38 38" fill="none" xmlns="http://www.w3.org/2000/svg">
<g clip-path="url(#clip0_207_491)">
<path d="M28.2135 30.5379C34.5036 30.285 37.2994 27.4221 37.2994 23.9185C37.2994 20.8752 35.1875 18.3146 30.5096 17.5281C30.5304 16.3962 30.532 15.3044 30.532 14.2851H0.701172C0.701172 20.95 0.708883 30.6312 6.69679 35.2551C3.06287 35.5334 0.701172 35.976 0.701172 36.4741C0.701172 37.3176 7.37916 38 15.617 38C23.8548 38 30.532 37.3176 30.532 36.4741C30.532 35.976 28.1703 35.5327 24.5371 35.2551C26.1625 34.0006 27.3507 32.3768 28.2135 30.5379ZM30.3986 20.4264C33.0232 21.0348 33.492 22.3217 33.4619 23.9879C33.4288 25.88 32.8806 27.1607 29.2968 27.6017C29.9452 25.2986 30.2521 22.8259 30.3986 20.4264ZM4.30193 16.5982H8.96519C6.8749 22.7665 10.4009 32.5264 10.4009 32.5264C2.77682 26.6827 4.30193 16.5982 4.30193 16.5982Z" fill="#6D6D70"/>
<path d="M18.0567 10.2649C18.6497 4.89226 30.5114 7.58011 28.0394 0.605271C27.6616 -0.461079 25.9537 -0.00153858 26.3354 1.07484C27.4195 4.13278 23.3006 4.5052 21.2034 5.20607C18.6844 6.04805 16.5995 7.45597 16.2895 10.2649C16.1646 11.3968 17.9334 11.3844 18.0567 10.2649Z" fill="#6D6D70"/>
<path d="M26.4762 6.50528C24.1631 7.05041 22.0489 8.04119 21.328 10.4731C21.0034 11.5687 22.7089 12.0329 23.032 10.9426C23.8277 8.25709 27.3552 8.21237 29.6074 7.55852C32.0262 6.8561 33.4102 5.18063 33.0779 2.60844C32.9329 1.49428 31.1657 1.4804 31.3107 2.60844C31.7124 5.71882 28.8503 5.94473 26.4762 6.50528Z" fill="#6D6D70"/>
</g>
<defs>
<clipPath id="clip0_207_491">
<rect width="38" height="38" fill="white"/>
</clipPath>
</defs>
</svg>
