<svg width="30" height="30" viewBox="0 0 30 30" fill="none" xmlns="http://www.w3.org/2000/svg">
<path d="M5.61969 9.30127C4.43437 10.1475 3.47336 11.0524 2.73694 11.8499C1.07206 13.6529 1.07206 16.3474 2.73694 18.1504C4.89619 20.4889 8.98631 23.7502 15.0003 23.7502C16.6201 23.7502 18.1002 23.5137 19.4407 23.1223L17.3622 21.0438C16.6173 21.1763 15.8301 21.2502 15.0003 21.2502C9.95894 21.2502 6.48572 18.5252 4.57367 16.4544C3.79314 15.6092 3.79314 14.3912 4.57367 13.5459C5.29724 12.7623 6.24439 11.885 7.41549 11.0971L5.61969 9.30127Z" fill="white"/>
<path d="M10.6664 14.3481C10.6346 14.5609 10.6182 14.7785 10.6182 15.0001C10.6182 17.4164 12.5769 19.3751 14.9932 19.3751C15.2147 19.3751 15.4324 19.3586 15.6452 19.3269L10.6664 14.3481Z" fill="white"/>
<path d="M19.3331 15.5589L14.4346 10.6604C14.6176 10.637 14.8041 10.625 14.9934 10.625C17.4097 10.625 19.3684 12.5838 19.3684 15C19.3684 15.1894 19.3564 15.3759 19.3331 15.5589Z" fill="white"/>
<path d="M22.6396 18.866C23.7853 18.0877 24.7142 17.2256 25.4264 16.4542C26.2069 15.609 26.2069 14.391 25.4264 13.5457C23.5144 11.475 20.0412 8.75 14.9998 8.75C14.1991 8.75 13.4379 8.81874 12.7163 8.94269L10.6309 6.85727C11.9524 6.47825 13.4088 6.25 14.9998 6.25C21.0138 6.25 25.1039 9.51131 27.2632 11.8497C28.9281 13.6527 28.9281 16.3472 27.2632 18.1502C26.5379 18.9357 25.5948 19.8254 24.4341 20.6605L22.6396 18.866Z" fill="white"/>
<path d="M2.50968 4.27744C2.02151 3.78929 2.02151 2.99783 2.50968 2.50968C2.99783 2.02151 3.78929 2.02151 4.27744 2.50968L27.5003 25.7326C27.9886 26.2207 27.9886 27.0122 27.5003 27.5004C27.0122 27.9885 26.2207 27.9885 25.7326 27.5004L2.50968 4.27744Z" fill="white"/>
</svg>
