<svg width="33" height="33" viewBox="0 0 33 33" fill="none" xmlns="http://www.w3.org/2000/svg">
<g clip-path="url(#clip0_65_104)">
<path fill-rule="evenodd" clip-rule="evenodd" d="M16.5 0C25.6129 0 33 7.57338 33 16.9173C33 24.3902 28.2777 30.7295 21.7255 32.9686C20.889 33.1352 20.592 32.6069 20.592 32.1565C20.592 31.5988 20.6118 29.7772 20.6118 27.5134C20.6118 25.936 20.0838 24.9065 19.4915 24.3818C23.166 23.9627 27.027 22.532 27.027 16.0343C27.027 14.1863 26.3868 12.6783 25.3275 11.4936C25.4991 11.0663 26.065 9.34552 25.1658 7.01572C25.1658 7.01572 23.7831 6.56242 20.6332 8.75032C19.3149 8.37577 17.9025 8.18731 16.5 8.18071C15.0975 8.18731 13.6868 8.37577 12.3701 8.75032C9.2169 6.56242 7.8309 7.01572 7.8309 7.01572C6.93495 9.34552 7.5009 11.0663 7.67085 11.4936C6.6165 12.6783 5.97136 14.1863 5.97136 16.0343C5.97136 22.5155 9.82411 23.9682 13.4888 24.3955C13.0169 24.8179 12.5895 25.5631 12.441 26.657C11.5005 27.0893 9.1113 27.8375 7.6395 25.2519C7.6395 25.2519 6.76665 23.6265 5.11005 23.5077C5.11005 23.5077 3.5013 23.4863 4.99785 24.5357C4.99785 24.5357 6.0786 25.0554 6.82935 27.0107C6.82935 27.0107 7.7979 30.0301 12.3882 29.0071C12.3965 30.4212 12.4113 31.7539 12.4113 32.1565C12.4113 32.6036 12.1077 33.1269 11.2843 32.9702C4.72724 30.7344 0 24.3918 0 16.9173C0 7.57338 7.3887 0 16.5 0Z" fill="white"/>
</g>
<defs>
<clipPath id="clip0_65_104">
<rect width="33" height="33" fill="white"/>
</clipPath>
</defs>
</svg>
