<svg width="50" height="50" viewBox="0 0 50 50" fill="none" xmlns="http://www.w3.org/2000/svg">
<path d="M36.9314 14.5937C34.7063 13.6156 32.3269 12.9047 29.8395 12.5C29.5341 13.0189 29.1772 13.7168 28.9311 14.272C26.2869 13.8984 23.667 13.8984 21.0714 14.272C20.8255 13.7168 20.4603 13.0189 20.1522 12.5C17.662 12.9047 15.2801 13.6182 13.055 14.5989C8.56682 20.9708 7.35014 27.1845 7.95847 33.31C10.9353 35.3986 13.8201 36.6672 16.6563 37.4973C17.3566 36.592 17.9811 35.6295 18.5192 34.615C17.4944 34.2492 16.513 33.7978 15.5856 33.2736C15.8317 33.1025 16.0723 32.9234 16.3048 32.7392C21.9611 35.2247 28.1064 35.2247 33.6952 32.7392C33.9303 32.9234 34.1709 33.1025 34.4142 33.2736C33.4842 33.8003 32.5 34.2517 31.4753 34.6177C32.0133 35.6295 32.6352 36.5945 33.3381 37.5C36.177 36.6698 39.0645 35.4011 42.0414 33.31C42.7552 26.2091 40.822 20.0523 36.9314 14.5937ZM19.2897 29.543C17.5917 29.543 16.1994 28.0536 16.1994 26.2402C16.1994 24.4267 17.562 22.9348 19.2897 22.9348C21.0173 22.9348 22.4097 24.4241 22.38 26.2402C22.3828 28.0536 21.0173 29.543 19.2897 29.543ZM30.7102 29.543C29.0122 29.543 27.6198 28.0536 27.6198 26.2402C27.6198 24.4267 28.9825 22.9348 30.7102 22.9348C32.4378 22.9348 33.8303 24.4241 33.8005 26.2402C33.8005 28.0536 32.4378 29.543 30.7102 29.543Z" fill="#5865F2"/>
</svg>
