<svg width="50" height="50" viewBox="0 0 50 50" fill="none" xmlns="http://www.w3.org/2000/svg">
<g clip-path="url(#clip0_219_1307)">
<path d="M15.4297 38.1836V24.3164L7.42188 18.1641V35.2539C7.42188 37.207 8.39844 38.1836 10.3516 38.1836" fill="#4285F4"/>
<path d="M15.0391 24.2188L25 31.7383L34.9609 24.2188V14.6484L25 22.168L15.0391 14.6484" fill="#EA4335"/>
<path d="M34.5703 38.1836V24.3164L42.5781 18.1641V35.2539C42.5781 37.207 41.6016 38.1836 39.6484 38.1836" fill="#34A853"/>
<path d="M7.42188 18.3594L15.4297 24.5117V14.9414L12.5 12.6953C9.86328 10.6445 7.42188 12.6953 7.42188 15.2344" fill="#C5221F"/>
<path d="M42.5781 18.3594L34.5703 24.5117V14.9414L37.5 12.6953C40.1367 10.6445 42.5781 12.6953 42.5781 15.2344" fill="#FBBC04"/>
</g>
<defs>
<clipPath id="clip0_219_1307">
<rect width="50" height="50" fill="white"/>
</clipPath>
</defs>
</svg>
